<svg width="250" height="75" viewBox="0 0 250 75" fill="none" xmlns="http://www.w3.org/2000/svg">
<path d="M34.2 40.95C34.2 38.05 34.7167 35.5167 35.75 33.35C36.8167 31.1833 38.25 29.5167 40.05 28.35C41.8833 27.1833 43.9167 26.6 46.15 26.6C48.0833 26.6 49.75 26.9833 51.15 27.75C52.55 28.5167 53.6333 29.55 54.4 30.85V26.95H64.2V55H54.4V51.1C53.6333 52.4 52.5333 53.4333 51.1 54.2C49.7 54.9667 48.05 55.35 46.15 55.35C43.9167 55.35 41.8833 54.7667 40.05 53.6C38.25 52.4333 36.8167 50.7667 35.75 48.6C34.7167 46.4 34.2 43.85 34.2 40.95ZM54.4 40.95C54.4 39.15 53.9 37.7333 52.9 36.7C51.9333 35.6667 50.7333 35.15 49.3 35.15C47.8333 35.15 46.6167 35.6667 45.65 36.7C44.6833 37.7 44.2 39.1167 44.2 40.95C44.2 42.75 44.6833 44.1833 45.65 45.25C46.6167 46.2833 47.8333 46.8 49.3 46.8C50.7333 46.8 51.9333 46.2833 52.9 45.25C53.9 44.2167 54.4 42.7833 54.4 40.95ZM79.5844 18V55H69.7844V18H79.5844ZM83.5652 40.95C83.5652 38.05 84.1652 35.5167 85.3652 33.35C86.5652 31.1833 88.2319 29.5167 90.3652 28.35C92.5319 27.1833 94.9986 26.6 97.7652 26.6C101.332 26.6 104.332 27.5833 106.765 29.55C109.199 31.4833 110.765 34.2 111.465 37.7H101.065C100.465 35.8667 99.2986 34.95 97.5652 34.95C96.3319 34.95 95.3486 35.4667 94.6152 36.5C93.9152 37.5 93.5652 38.9833 93.5652 40.95C93.5652 42.9167 93.9152 44.4167 94.6152 45.45C95.3486 46.4833 96.3319 47 97.5652 47C99.3319 47 100.499 46.0833 101.065 44.25H111.465C110.765 47.7167 109.199 50.4333 106.765 52.4C104.332 54.3667 101.332 55.35 97.7652 55.35C94.9986 55.35 92.5319 54.7667 90.3652 53.6C88.2319 52.4333 86.5652 50.7667 85.3652 48.6C84.1652 46.4333 83.5652 43.8833 83.5652 40.95ZM144.236 26.95V55H134.386V51C133.553 52.2667 132.403 53.3 130.936 54.1C129.47 54.8667 127.786 55.25 125.886 55.25C122.62 55.25 120.036 54.1833 118.136 52.05C116.27 49.8833 115.336 46.95 115.336 43.25V26.95H125.086V42C125.086 43.6 125.503 44.8667 126.336 45.8C127.203 46.7 128.336 47.15 129.736 47.15C131.17 47.15 132.303 46.7 133.136 45.8C133.97 44.8667 134.386 43.6 134.386 42V26.95H144.236ZM159.614 18V55H149.814V18H159.614ZM163.595 40.95C163.595 38.05 164.111 35.5167 165.145 33.35C166.211 31.1833 167.645 29.5167 169.445 28.35C171.278 27.1833 173.311 26.6 175.545 26.6C177.478 26.6 179.145 26.9833 180.545 27.75C181.945 28.5167 183.028 29.55 183.795 30.85V26.95H193.595V55H183.795V51.1C183.028 52.4 181.928 53.4333 180.495 54.2C179.095 54.9667 177.445 55.35 175.545 55.35C173.311 55.35 171.278 54.7667 169.445 53.6C167.645 52.4333 166.211 50.7667 165.145 48.6C164.111 46.4 163.595 43.85 163.595 40.95ZM183.795 40.95C183.795 39.15 183.295 37.7333 182.295 36.7C181.328 35.6667 180.128 35.15 178.695 35.15C177.228 35.15 176.011 35.6667 175.045 36.7C174.078 37.7 173.595 39.1167 173.595 40.95C173.595 42.75 174.078 44.1833 175.045 45.25C176.011 46.2833 177.228 46.8 178.695 46.8C180.128 46.8 181.328 46.2833 182.295 45.25C183.295 44.2167 183.795 42.7833 183.795 40.95ZM215.729 46.65V55H211.479C204.312 55 200.729 51.45 200.729 44.35V35.1H197.279V26.95H200.729V20.15H210.579V26.95H215.679V35.1H210.579V44.5C210.579 45.2667 210.746 45.8167 211.079 46.15C211.446 46.4833 212.046 46.65 212.879 46.65H215.729ZM239.594 31.9C240.694 30.3 242.027 29.0333 243.594 28.1C245.161 27.1667 246.844 26.7 248.644 26.7V37.15H245.894C243.761 37.15 242.177 37.5667 241.144 38.4C240.111 39.2333 239.594 40.6833 239.594 42.75V55H229.794V26.95H239.594V31.9Z" fill="white"/>
<path d="M33.2886 25.7114C30.5615 22.9843 27.0869 21.1271 23.3043 20.3747C19.5216 19.6223 15.6008 20.0084 12.0377 21.4844C8.47451 22.9603 5.42903 25.4596 3.28634 28.6664C1.14365 31.8731 -5.82351e-07 35.6433 0 39.5C5.82351e-07 43.3567 1.14366 47.1269 3.28634 50.3336C5.42903 53.5404 8.47452 56.0397 12.0377 57.5157C15.6008 58.9916 19.5216 59.3777 23.3043 58.6253C27.0869 57.8729 30.5615 56.0157 33.2886 53.2886L25.1171 45.1171C24.0061 46.228 22.5907 46.9846 21.0498 47.2911C19.5088 47.5976 17.9116 47.4403 16.4601 46.8391C15.0085 46.2378 13.7679 45.2197 12.895 43.9133C12.0221 42.607 11.5562 41.0711 11.5562 39.5C11.5562 37.9289 12.0221 36.393 12.895 35.0867C13.7679 33.7803 15.0085 32.7622 16.4601 32.1609C17.9116 31.5597 19.5088 31.4024 21.0497 31.7089C22.5907 32.0154 24.0061 32.772 25.1171 33.8829L33.2886 25.7114Z" fill="#BAFFDE"/>
<line x1="30.2322" y1="25.2322" x2="50.2322" y2="5.23223" stroke="#BAFFDE" stroke-width="5"/>
<circle cx="50" cy="5" r="5" fill="#BAFFDE"/>
<circle cx="221" cy="51" r="4" fill="#BAFFDE"/>
</svg>
